control3min_grf.mot
version=1
nRows=25
nColumns 19
inDegrees=yes
endheader
time	1_ground_force_vx	1_ground_force_vy	1_ground_force_vz	1_ground_force_px	1_ground_force_py	1_ground_force_pz	1_ground_torque_x	1_ground_torque_y	1_ground_torque_z	2_ground_force_vx	2_ground_force_vy	2_ground_force_vz	2_ground_force_px	2_ground_force_py	2_ground_force_pz	2_ground_torque_x	2_ground_torque_y	2_ground_torque_z
            1.253500	            0.687784	            3.604070	            0.334744	           -0.233013	            0.005581	           -0.255695	            0.622773	           -0.185145	            0.196036	           -3.106890	            6.007653	           16.307050	           -0.232311	            0.006130	           -0.833667	           -1.073978	           -4.231912	            0.720545
            1.254000	            0.733884	            4.684887	            0.522692	           -0.233013	            0.005581	           -0.255695	            0.501766	           -0.166896	            0.254725	           -3.388113	            6.007642	           16.025601	           -0.232311	            0.006130	           -0.833667	           -1.074132	           -4.184783	            0.758414
            1.254500	            0.412058	            4.145797	            0.108466	           -0.233013	            0.005581	           -0.255695	            0.575986	           -0.130070	            0.241035	           -3.107658	            6.192638	           16.073066	           -0.232311	            0.006130	           -0.833667	           -1.055322	           -4.184917	            0.814957
            1.255000	            0.594992	            3.425753	           -0.124361	           -0.233013	            0.005581	           -0.255695	            0.548758	           -0.185540	            0.267507	           -3.104937	            5.455543	           16.211222	           -0.232311	            0.006130	           -0.833667	           -1.036783	           -4.127797	            0.720900
            1.255500	            0.640526	            3.246086	           -0.262815	           -0.233013	            0.005581	           -0.255695	            0.667575	           -0.250527	            0.344087	           -3.389360	            6.375269	           16.214627	           -0.232311	            0.006130	           -0.833667	           -1.055433	           -4.156492	            0.796208
            1.256000	            0.640362	            4.147414	           -0.258950	           -0.233013	            0.005581	           -0.255695	            0.647999	           -0.296345	            0.249917	           -3.013211	            6.008159	           16.260082	           -0.232311	            0.006130	           -0.833667	           -0.980198	           -4.175327	            0.852659
            1.256500	            0.548984	            4.327072	           -0.120382	           -0.233013	            0.005581	           -0.255695	            0.641903	           -0.231518	            0.208698	           -2.871250	            5.639700	           16.446420	           -0.232311	            0.006130	           -0.833667	           -0.980359	           -4.146499	            0.720809
            1.257000	            0.733348	            4.505604	            0.292639	           -0.233013	            0.005581	           -0.255695	            0.568064	           -0.148565	            0.292242	           -3.059376	            5.823674	           16.306373	           -0.232311	            0.006130	           -0.833667	           -1.036528	           -4.194100	            0.758364
            1.257500	            0.733039	            4.325928	            0.154298	           -0.233013	            0.005581	           -0.255695	            0.649030	           -0.092933	            0.254689	           -3.061472	            6.376955	           16.073703	           -0.232311	            0.006130	           -0.833667	           -1.036749	           -4.137249	            0.720866
            1.258000	            0.549931	            2.883767	            0.148570	           -0.233013	            0.005581	           -0.255695	            0.556126	           -0.102360	            0.265910	           -3.242808	            4.718274	           16.255582	           -0.232311	            0.006130	           -0.833667	           -0.980222	           -4.184309	            0.720674
            1.258500	            0.503567	            3.245076	           -0.033194	           -0.233013	            0.005581	           -0.255695	            0.620078	           -0.130186	            0.282462	           -3.152514	            5.640024	           16.071115	           -0.232311	            0.006130	           -0.833667	           -1.074328	           -4.137318	            0.702032
            1.259000	            0.548807	            3.426334	           -0.261815	           -0.233013	            0.005581	           -0.255695	            0.742300	           -0.222422	            0.246116	           -3.248002	            6.190457	           16.542407	           -0.232311	            0.006130	           -0.833667	           -0.961420	           -4.184376	            0.758366
            1.259500	            0.318892	            4.148335	           -0.487433	           -0.233013	            0.005581	           -0.255695	            0.545144	           -0.231897	            0.255563	           -2.963661	            5.271400	           16.351290	           -0.232311	            0.006130	           -0.833667	           -0.999169	           -4.146365	            0.664266
            1.260000	            0.686172	            4.327689	           -0.258291	           -0.233013	            0.005581	           -0.255695	            0.647911	           -0.166997	            0.271218	           -3.201275	            6.191630	           16.260819	           -0.232311	            0.006130	           -0.833667	           -1.017854	           -4.156423	            0.815042
            1.260500	            0.457463	            3.425726	           -0.124019	           -0.233013	            0.005581	           -0.255695	            0.605141	           -0.121050	            0.299376	           -3.154487	            6.192301	           16.120014	           -0.232311	            0.006130	           -0.833667	           -1.055406	           -4.175061	            0.701889
            1.261000	            0.733156	            3.064265	            0.103032	           -0.233013	            0.005581	           -0.255695	            0.595346	           -0.120434	            0.198355	           -3.150458	            5.087077	           16.209928	           -0.232311	            0.006130	           -0.833667	           -0.998964	           -4.203080	            0.664064
            1.261500	            0.596014	            4.685450	            0.385465	           -0.233013	            0.005581	           -0.255695	            0.432425	           -0.111356	            0.211675	           -3.340496	            5.822826	           16.259564	           -0.232311	            0.006130	           -0.833667	           -1.074234	           -4.165609	            0.683081
            1.262000	            0.595855	            3.063845	            0.195085	           -0.233013	            0.005581	           -0.255695	            0.704213	           -0.231635	            0.248138	           -3.294954	            6.191125	           16.307786	           -0.232311	            0.006130	           -0.833667	           -1.036577	           -4.193697	            0.645263
            1.262500	            0.549113	            4.867476	           -0.026351	           -0.233013	            0.005581	           -0.255695	            0.675140	           -0.222185	            0.189838	           -2.919491	            6.008329	           16.306970	           -0.232311	            0.006130	           -0.833667	           -1.055347	           -4.184715	            0.758406
            1.263000	            0.410772	            4.328225	           -0.395176	           -0.233013	            0.005581	           -0.255695	            0.634887	           -0.194700	            0.221807	           -3.201193	            6.190961	           16.448531	           -0.232311	            0.006130	           -0.833667	           -1.055567	           -4.137048	            0.645473
            1.263500	            0.686744	            3.065239	           -0.126134	           -0.233013	            0.005581	           -0.255695	            0.530362	           -0.158013	            0.327987	           -3.198534	            5.454367	           16.445903	           -0.232311	            0.006130	           -0.833667	           -1.055347	           -4.184715	            0.758406
            1.264000	            0.548415	            4.328055	           -0.349662	           -0.233013	            0.005581	           -0.255695	            0.614343	           -0.093284	            0.303349	           -3.294831	            6.190120	           16.589355	           -0.232311	            0.006130	           -0.833667	           -0.942593	           -4.193828	            0.777175
            1.264500	            0.641599	            3.604651	            0.197290	           -0.233013	            0.005581	           -0.255695	            0.666498	           -0.148753	            0.325715	           -3.246775	            5.822997	           16.306452	           -0.232311	            0.006130	           -0.833667	           -1.130472	           -4.185121	            0.796138
            1.265000	            0.824693	            4.506211	            0.154844	           -0.233013	            0.005581	           -0.255695	            0.686665	           -0.148666	            0.333452	           -3.150499	            5.087412	           16.116072	           -0.232311	            0.006130	           -0.833667	           -1.017726	           -4.194167	            0.796057
            1.265500	            0.733088	            4.686263	            0.201700	           -0.233013	            0.005581	           -0.255695	            0.646719	           -0.175881	            0.197932	           -3.201316	            6.191965	           16.166962	           -0.232311	            0.006130	           -0.833667	           -1.017989	           -4.127797	            0.739742
